<svg width="415" height="418" viewBox="0 0 415 418" fill="none" xmlns="http://www.w3.org/2000/svg">
<path d="M208.031 224.09C237.483 224.09 261.359 200.269 261.359 170.884C261.359 141.499 237.483 117.677 208.031 117.677C178.58 117.677 154.704 141.499 154.704 170.884C154.704 200.269 178.58 224.09 208.031 224.09Z" stroke="url(#paint0_linear_20_89)" stroke-width="4.24" stroke-miterlimit="10"/>
<path d="M194.71 123.348C197.523 124.271 202.518 126.398 206.58 131.244C208.542 133.582 211.713 137.32 211.615 142.408C211.55 145.539 210.278 148.071 209.369 149.883C207.732 153.135 206.459 153.75 204.415 157.083C204.415 157.083 202.372 160.416 201.034 164.825C199.088 171.256 203.021 181.91 211.056 192.168C205.388 189.661 201.099 186.91 198.196 184.823C192.253 180.559 187.818 177.283 185.994 171.442C184.94 168.077 185.183 165.237 185.264 164.493C185.385 163.361 185.815 160.392 190.445 153.386C194.775 146.841 196.599 146.113 198.31 141.478C199.007 139.585 199.842 137.263 199.696 134.229C199.437 128.655 196.096 124.78 194.71 123.34V123.348Z" fill="url(#paint1_linear_20_89)"/>
<path d="M192.415 201.148C196.477 203.324 201.48 205.136 207.204 205.443C207.796 199.335 203.069 192.661 199.299 189.49C195.699 186.19 193.85 185.979 190.396 183.075C177.747 172.955 182.118 160.496 187.169 152.398C176.815 161.896 171.196 183.269 186.561 197.103C188.718 199.012 190.591 200.096 192.415 201.148Z" fill="url(#paint2_linear_20_89)"/>
<path d="M230.515 155.667C231.464 157.358 232.834 160.416 232.867 164.372C232.883 166.111 232.899 169.072 231.091 171.992C229.064 175.261 225.942 176.547 224.426 177.17C215.596 180.818 205.923 175.309 204.415 174.419C204.999 175.617 207.277 180.025 211.364 182.153C213.886 183.464 216.756 183.973 216.756 183.973C217.575 184.119 218.823 184.281 219.286 184.337C220.672 184.515 221.832 184.629 222.651 184.701C222.829 185.357 222.959 185.988 223.04 186.651C223.04 186.651 223.453 189.749 222.569 193.285C221.223 198.64 217.169 202.855 216.342 203.696C216.902 203.712 217.721 203.68 218.669 203.462C219.821 203.187 220.599 202.701 221.402 202.313C223.307 201.391 224.848 200.363 226.024 199.457C230.313 196.173 232.745 192.532 233.37 191.553C233.986 190.591 236.329 186.756 237.464 181.101C238.64 175.22 237.861 170.528 237.488 168.708C237.099 166.782 236.475 163.854 234.497 160.569C233.151 158.329 231.651 156.711 230.507 155.651L230.515 155.667Z" fill="url(#paint3_linear_20_89)"/>
<path d="M220.753 171.66C224.694 171.66 227.888 168.473 227.888 164.541C227.888 160.61 224.694 157.422 220.753 157.422C216.813 157.422 213.618 160.61 213.618 164.541C213.618 168.473 216.813 171.66 220.753 171.66Z" fill="url(#paint4_linear_20_89)"/>
<path d="M229.38 202.199C229.194 202.151 229.015 202.28 228.797 202.442C228.124 202.927 225.245 204.893 220.453 206.39C218.369 207.037 216.594 207.231 215.029 207.45C212.913 207.741 211.088 207.862 209.678 207.911V207.87C208.242 207.838 206.353 207.733 204.148 207.441C202.583 207.231 200.807 207.061 198.715 206.422C193.915 204.958 191.029 203.016 190.348 202.531C190.129 202.377 189.942 202.24 189.764 202.288C189.131 202.474 189.277 204.675 189.277 204.845C189.277 205.993 189.902 210.313 196.729 212.433C201.821 214.018 206.353 214.294 208.729 214.31C208.729 214.31 215.013 214.779 222.488 212.401C229.299 210.232 229.891 205.913 229.883 204.764C229.883 204.594 230.013 202.385 229.38 202.207V202.199Z" fill="url(#paint5_linear_20_89)"/>
<path d="M210.107 220.863C214.267 220.709 217.867 220.078 220.753 219.358C221.134 217.821 221.523 216.292 221.905 214.755C218.88 215.491 214.988 216.154 210.431 216.219C205.137 216.3 200.661 215.548 197.337 214.739C197.791 216.494 198.245 218.25 198.699 219.997C201.804 220.58 205.664 221.016 210.107 220.855V220.863Z" fill="url(#paint6_linear_20_89)"/>
<path d="M286.016 281.558L278.738 282.895C278.281 282.957 277.769 282.721 277.203 282.188C276.636 281.654 276.314 281.102 276.236 280.53C276.166 280.016 276.936 279.578 278.544 279.214C280.181 278.846 283.783 278.284 289.352 277.528C292.236 277.137 294.649 277.129 296.59 277.506C298.56 277.878 299.597 278.45 299.702 279.221C299.776 279.763 299.341 280.098 298.399 280.226C297.456 280.354 296.135 280.475 294.435 280.59C292.735 280.704 291.112 280.852 289.566 281.033C289.69 281.307 289.776 281.615 289.822 281.958C289.965 283.014 289.519 288.077 288.481 297.146C288.377 298.091 288.228 299.565 288.035 301.569C287.842 303.573 287.683 304.976 287.559 305.778C287.365 307.345 287.111 308.151 286.797 308.193C286.368 308.251 285.84 308.003 285.212 307.449C284.609 306.862 284.263 306.24 284.174 305.583C284.085 304.926 284.398 301.452 285.115 295.16C285.827 288.84 286.128 284.306 286.016 281.558Z" fill="#DE2621"/>
<path d="M273.275 301.521C273.593 303.863 272.803 305.977 270.907 307.862C269.008 309.72 266.687 310.835 263.946 311.207C261.233 311.575 258.896 311.18 256.936 310.021C254.971 308.834 253.904 307.612 253.733 306.355C253.617 305.498 253.816 305.035 254.33 304.965C254.787 304.903 255.779 305.467 257.308 306.655C257.888 307.071 258.635 307.435 259.55 307.747C260.493 308.055 261.45 308.143 262.421 308.011C264.42 307.74 266.121 306.986 267.523 305.748C268.954 304.507 269.588 303.287 269.425 302.087C269.321 301.316 268.673 300.401 267.482 299.341C266.291 298.281 264.996 297.308 263.596 296.422C262.221 295.504 260.936 294.501 259.741 293.412C258.547 292.324 257.901 291.423 257.804 290.709C257.707 289.995 257.747 289.219 257.924 288.381C258.101 287.542 258.336 286.914 258.628 286.497C259.575 285.118 261.149 283.755 263.351 282.409C265.582 281.059 267.497 280.276 269.096 280.059C269.924 279.946 270.661 280.123 271.305 280.588C271.95 281.053 272.313 281.585 272.395 282.185C272.433 282.47 272.164 282.74 271.588 282.992C271.012 283.245 270.129 283.598 268.94 284.05C267.775 284.47 266.747 284.929 265.855 285.428C262.742 287.13 261.265 288.567 261.424 289.738C261.509 290.366 263.418 291.895 267.15 294.326C268.587 295.265 269.919 296.407 271.149 297.753C272.403 299.066 273.112 300.322 273.275 301.521Z" fill="#DE2621"/>
<path d="M234.974 301.531C234.095 306.623 233.726 309.683 233.865 310.711C233.912 311.054 234.05 311.326 234.281 311.527C234.537 311.696 234.836 311.757 235.179 311.711C238.463 311.265 242.017 310.244 245.843 308.649C247.082 308.132 247.801 307.86 248.001 307.833C248.429 307.774 248.684 308.045 248.765 308.645C248.905 309.673 247.464 310.945 244.441 312.46C241.447 313.971 238.48 314.927 235.539 315.326C234.225 315.504 233.016 315.276 231.912 314.641C230.837 314.001 230.219 313.096 230.06 311.926C229.901 310.755 230.044 308.7 230.488 305.76C230.961 302.817 231.409 299.688 231.831 296.374C232.254 293.059 232.316 290.302 232.017 288.104C231.975 287.79 231.987 287.453 232.055 287.095C232.397 285.973 235.438 285.022 241.178 284.243C246.917 283.464 249.843 283.488 249.956 284.316C250.033 284.887 249.472 285.356 248.271 285.723C247.27 286.062 245.925 286.434 244.235 286.838C242.569 287.209 241.4 287.484 240.726 287.663C240.048 287.813 238.427 288.295 235.862 289.109L235.879 289.237C236.143 291.179 236.012 294.177 235.487 298.233C235.662 298.238 236.235 298.175 237.206 298.043C238.205 297.908 239.523 297.656 241.16 297.288C242.797 296.921 244.029 296.681 244.858 296.568C245.714 296.452 246.17 296.594 246.224 296.994C246.36 297.993 245.29 298.894 243.014 299.698C240.738 300.501 238.058 301.112 234.974 301.531Z" fill="#DE2621"/>
<path d="M211.342 305.611L211.256 305.623C211.238 305.916 211.108 307.097 210.865 309.166C210.651 311.231 210.515 312.587 210.458 313.235C210.396 313.854 210.334 314.357 210.27 314.743C210.234 315.126 210.193 315.568 210.144 316.069C210.092 316.541 210.028 316.928 209.953 317.229C209.902 317.498 209.851 317.766 209.801 318.035C209.695 318.544 209.557 318.81 209.385 318.833C209.014 318.883 208.474 318.55 207.766 317.831C207.054 317.085 206.663 316.454 206.593 315.94C206.524 315.426 206.853 311.746 207.581 304.9C208.338 298.051 208.596 293.523 208.354 291.316C208.296 290.888 208.35 290.531 208.515 290.247C208.719 289.609 209.503 289.066 210.867 288.619C212.26 288.168 214.313 287.759 217.026 287.391C219.767 287.018 221.928 286.87 223.509 286.947C225.118 287.019 225.958 287.312 226.028 287.826C226.074 288.169 225.865 288.445 225.398 288.653C224.932 288.862 224.52 289.034 224.16 289.17C223.797 289.278 223.321 289.415 222.733 289.582C222.141 289.721 221.592 289.853 221.085 289.98C220.575 290.079 219.912 290.227 219.096 290.425C218.308 290.619 217.577 290.806 216.903 290.984C216.226 291.134 215.311 291.36 214.16 291.662C213.008 291.964 212.263 292.152 211.924 292.227C211.965 292.309 211.996 292.436 212.02 292.607C212.202 293.949 212.064 297.109 211.605 302.086C213.387 301.931 215.28 301.631 217.284 301.184C219.317 300.734 220.562 300.477 221.019 300.415C222.104 300.268 222.678 300.423 222.74 300.88C222.86 301.765 221.718 302.676 219.315 303.613C216.941 304.546 214.283 305.212 211.342 305.611Z" fill="#DE2621"/>
<path d="M267.207 275.246V240H273.966L294.795 265.377H291.516V240H299.586V275.246H292.878L271.999 249.869H275.277V275.246H267.207Z" fill="#F5F5F5"/>
<path d="M240.886 254.199H257.882V260.543H240.886V254.199ZM241.492 268.7H260.707V275.246H233.372V240H260.051V246.546H241.492V268.7Z" fill="#F5F5F5"/>
<path d="M185.204 275.246V240H191.962L206.991 264.874H203.41L218.187 240H224.895L224.996 275.246H217.33L217.279 251.732H218.692L206.89 271.52H203.208L191.155 251.732H192.87V275.246H185.204Z" fill="#F5F5F5"/>
<path d="M161.142 275.85C156.133 275.85 152.216 274.457 149.391 271.671C146.567 268.885 145.155 264.907 145.155 259.738V240H153.325V259.436C153.325 262.792 154.015 265.209 155.393 266.686C156.772 268.163 158.705 268.902 161.193 268.902C163.681 268.902 165.614 268.163 166.993 266.686C168.371 265.209 169.061 262.792 169.061 259.436V240H177.13V259.738C177.13 264.907 175.718 268.885 172.893 271.671C170.069 274.457 166.152 275.85 161.142 275.85Z" fill="#F5F5F5"/>
<path d="M115.414 275.246V240H123.584V268.6H141.287V275.246H115.414Z" fill="#F5F5F5"/>
<defs>
<linearGradient id="paint0_linear_20_89" x1="208.031" y1="117.677" x2="208.031" y2="224.09" gradientUnits="userSpaceOnUse">
<stop stop-color="#B1C738"/>
<stop offset="1" stop-color="#DF2020"/>
</linearGradient>
<linearGradient id="paint1_linear_20_89" x1="198.399" y1="123.34" x2="198.399" y2="192.168" gradientUnits="userSpaceOnUse">
<stop stop-color="#B1C738"/>
<stop offset="1" stop-color="#DF2020"/>
</linearGradient>
<linearGradient id="paint2_linear_20_89" x1="192.169" y1="152.398" x2="192.169" y2="205.443" gradientUnits="userSpaceOnUse">
<stop stop-color="#B1C738"/>
<stop offset="1" stop-color="#DF2020"/>
</linearGradient>
<linearGradient id="paint3_linear_20_89" x1="221.252" y1="155.651" x2="221.252" y2="203.7" gradientUnits="userSpaceOnUse">
<stop stop-color="#B1C738"/>
<stop offset="1" stop-color="#DF2020"/>
</linearGradient>
<linearGradient id="paint4_linear_20_89" x1="220.753" y1="157.422" x2="220.753" y2="171.66" gradientUnits="userSpaceOnUse">
<stop stop-color="#B1C738"/>
<stop offset="1" stop-color="#DF2020"/>
</linearGradient>
<linearGradient id="paint5_linear_20_89" x1="209.578" y1="202.189" x2="209.578" y2="214.347" gradientUnits="userSpaceOnUse">
<stop stop-color="#B1C738"/>
<stop offset="1" stop-color="#DF2020"/>
</linearGradient>
<linearGradient id="paint6_linear_20_89" x1="209.621" y1="214.739" x2="209.621" y2="220.889" gradientUnits="userSpaceOnUse">
<stop stop-color="#B1C738"/>
<stop offset="1" stop-color="#DF2020"/>
</linearGradient>
</defs>
</svg>
