<svg width="415" height="418" viewBox="0 0 415 418" fill="none" xmlns="http://www.w3.org/2000/svg">
<path d="M221.789 222.789V187.277H228.6L249.593 212.845H246.289V187.277H254.421V222.789H247.661L226.618 197.22H229.922V222.789H221.789Z" fill="#F5F5F5"/>
<path d="M195.848 201.583H213.154V207.975H195.848V201.583ZM196.464 216.194H216.03V222.789H188.196V187.277H215.362V193.872H196.464V216.194Z" fill="#F5F5F5"/>
<path d="M140.208 222.789V187.277H147.054L162.279 212.338H158.651L173.621 187.277H180.416L180.518 222.789H172.753L172.701 199.097H174.132L162.177 219.035H158.447L146.236 199.097H147.973V222.789H140.208Z" fill="#F5F5F5"/>
<path d="M116.693 222.789C111.73 222.789 107.85 221.409 105.053 218.649C102.255 215.889 100.856 211.949 100.856 206.828V187.277H108.949V206.529C108.949 209.854 109.632 212.248 110.997 213.711C112.363 215.174 114.278 215.906 116.743 215.906C119.207 215.906 121.122 215.174 122.488 213.711C123.853 212.248 124.536 209.854 124.536 206.529V187.277H132.529V206.828C132.529 211.949 131.13 215.889 128.333 218.649C125.535 221.409 121.655 222.789 116.693 222.789Z" fill="#F5F5F5"/>
<path d="M71.1033 222.789V187.277H79.2867V216.092H97.0173V222.789H71.1033Z" fill="#F5F5F5"/>
<path d="M339.421 204.51C339.42 186.428 324.751 171.766 306.653 171.766C288.554 171.766 273.886 186.428 273.886 204.51C273.886 222.592 288.554 237.255 306.653 237.255C324.752 237.255 339.421 222.592 339.421 204.51ZM346 204.51C346 226.229 328.381 243.834 306.653 243.834C284.925 243.834 267.307 226.229 267.307 204.51C267.307 182.79 284.925 165.187 306.653 165.187C328.381 165.187 346 182.79 346 204.51Z" fill="url(#paint0_linear_20_111)"/>
<path d="M297.646 172.317C299.548 172.942 302.925 174.383 305.672 177.664C306.999 179.248 309.142 181.779 309.076 185.225C309.033 187.345 308.172 189.06 307.558 190.287C306.45 192.49 305.59 192.906 304.208 195.164C304.208 195.164 302.827 197.421 301.922 200.407C300.606 204.762 303.265 211.978 308.698 218.925C304.866 217.227 301.966 215.364 300.003 213.95C295.985 211.063 292.986 208.844 291.752 204.888C291.04 202.609 291.204 200.686 291.259 200.182C291.341 199.415 291.632 197.404 294.762 192.66C297.69 188.227 298.923 187.734 300.08 184.595C300.551 183.313 301.116 181.741 301.017 179.686C300.842 175.911 298.583 173.287 297.646 172.312V172.317Z" fill="url(#paint1_linear_20_111)"/>
<path d="M296.094 225.006C298.841 226.48 302.223 227.708 306.094 227.916C306.494 223.779 303.298 219.259 300.749 217.112C298.315 214.876 297.065 214.734 294.729 212.767C286.177 205.913 289.132 197.475 292.547 191.991C285.546 198.423 281.747 212.898 292.136 222.267C293.594 223.56 294.861 224.294 296.094 225.006Z" fill="url(#paint2_linear_20_111)"/>
<path d="M321.856 194.205C322.497 195.35 323.424 197.421 323.446 200.1C323.457 201.278 323.468 203.283 322.245 205.261C320.874 207.474 318.764 208.346 317.739 208.767C311.768 211.238 305.228 207.507 304.208 206.905C304.603 207.716 306.144 210.701 308.907 212.142C310.612 213.03 312.552 213.375 312.552 213.375C313.106 213.474 313.95 213.583 314.263 213.622C315.2 213.742 315.984 213.819 316.538 213.868C316.659 214.312 316.746 214.739 316.801 215.189C316.801 215.189 317.081 217.287 316.483 219.681C315.573 223.308 312.832 226.163 312.273 226.732C312.651 226.743 313.205 226.721 313.846 226.574C314.625 226.387 315.151 226.059 315.694 225.796C316.982 225.171 318.024 224.475 318.819 223.862C321.719 221.637 323.363 219.172 323.786 218.509C324.202 217.857 325.787 215.26 326.554 211.43C327.349 207.447 326.823 204.269 326.571 203.037C326.307 201.733 325.885 199.749 324.548 197.525C323.638 196.007 322.623 194.912 321.85 194.194L321.856 194.205Z" fill="url(#paint3_linear_20_111)"/>
<path d="M315.255 205.036C317.919 205.036 320.079 202.878 320.079 200.215C320.079 197.552 317.919 195.394 315.255 195.394C312.59 195.394 310.43 197.552 310.43 200.215C310.43 202.878 312.59 205.036 315.255 205.036Z" fill="url(#paint4_linear_20_111)"/>
<path d="M321.088 225.719C320.962 225.686 320.841 225.774 320.693 225.883C320.238 226.212 318.292 227.543 315.052 228.557C313.643 228.995 312.442 229.127 311.384 229.275C309.953 229.472 308.72 229.554 307.766 229.587V229.56C306.796 229.538 305.518 229.466 304.027 229.269C302.969 229.127 301.768 229.012 300.354 228.579C297.108 227.587 295.157 226.272 294.696 225.944C294.548 225.839 294.422 225.746 294.301 225.779C293.874 225.905 293.972 227.395 293.972 227.51C293.972 228.288 294.395 231.214 299.011 232.65C302.454 233.723 305.518 233.91 307.124 233.921C307.124 233.921 311.373 234.238 316.428 232.628C321.033 231.159 321.433 228.234 321.428 227.456C321.428 227.341 321.515 225.845 321.088 225.724V225.719Z" fill="url(#paint5_linear_20_111)"/>
<path d="M308.057 238.358C310.869 238.254 313.303 237.827 315.255 237.339C315.512 236.298 315.776 235.263 316.033 234.222C313.988 234.72 311.357 235.17 308.276 235.214C304.696 235.268 301.67 234.759 299.422 234.211C299.729 235.4 300.036 236.589 300.343 237.772C302.443 238.167 305.052 238.462 308.057 238.353V238.358Z" fill="url(#paint6_linear_20_111)"/>
<path d="M221.789 222.602V187.09H228.6L249.593 212.659H246.289V187.09H254.421V222.602H247.661L226.618 197.034H229.922V222.602H221.789Z" fill="#F5F5F5"/>
<path d="M195.848 201.397H213.154V207.789H195.848V201.397ZM196.464 216.007H216.03V222.602H188.196V187.09H215.362V193.685H196.464V216.007Z" fill="#F5F5F5"/>
<path d="M140.208 222.602V187.09H147.054L162.279 212.152H158.651L173.621 187.09H180.416L180.518 222.602H172.753L172.701 198.911H174.132L162.177 218.848H158.447L146.236 198.911H147.973V222.602H140.208Z" fill="#F5F5F5"/>
<path d="M116.693 222.602C111.73 222.602 107.85 221.222 105.053 218.462C102.255 215.703 100.856 211.762 100.856 206.642V187.09H108.949V206.343C108.949 209.668 109.632 212.062 110.997 213.525C112.363 214.988 114.278 215.719 116.743 215.719C119.207 215.719 121.122 214.988 122.488 213.525C123.853 212.062 124.536 209.668 124.536 206.343V187.09H132.529V206.642C132.529 211.762 131.13 215.703 128.333 218.462C125.535 221.222 121.655 222.602 116.693 222.602Z" fill="#F5F5F5"/>
<path d="M71.1033 222.602V187.09H79.2867V215.906H97.0173V222.602H71.1033Z" fill="#F5F5F5"/>
<path d="M339.421 204.323C339.42 186.241 324.751 171.579 306.653 171.579C288.554 171.58 273.886 186.241 273.886 204.323C273.886 222.405 288.554 237.068 306.653 237.068C324.752 237.068 339.421 222.406 339.421 204.323ZM346 204.323C346 226.043 328.381 243.648 306.653 243.648C284.925 243.647 267.307 226.043 267.307 204.323C267.307 182.604 284.925 165 306.653 165C328.381 165 346 182.604 346 204.323Z" fill="url(#paint7_linear_20_111)"/>
<path d="M297.646 172.13C299.548 172.755 302.925 174.196 305.672 177.478C306.999 179.061 309.142 181.592 309.076 185.039C309.033 187.159 308.172 188.874 307.558 190.101C306.45 192.303 305.59 192.72 304.208 194.977C304.208 194.977 302.827 197.234 301.922 200.22C300.606 204.576 303.265 211.792 308.698 218.739C304.866 217.04 301.966 215.177 300.003 213.764C295.985 210.877 292.986 208.658 291.752 204.702C291.04 202.423 291.204 200.5 291.259 199.996C291.341 199.229 291.632 197.218 294.762 192.473C297.69 188.041 298.923 187.548 300.08 184.408C300.551 183.126 301.116 181.554 301.017 179.499C300.842 175.725 298.583 173.1 297.646 172.125V172.13Z" fill="url(#paint8_linear_20_111)"/>
<path d="M296.094 224.82C298.841 226.294 302.223 227.521 306.094 227.729C306.494 223.593 303.298 219.073 300.749 216.925C298.315 214.69 297.065 214.547 294.729 212.58C286.177 205.726 289.132 197.289 292.547 191.805C285.546 198.237 281.747 212.712 292.136 222.081C293.594 223.374 294.861 224.108 296.094 224.82Z" fill="url(#paint9_linear_20_111)"/>
<path d="M321.856 194.018C322.497 195.163 323.424 197.234 323.446 199.913C323.457 201.091 323.468 203.097 322.245 205.075C320.874 207.288 318.764 208.159 317.739 208.581C311.768 211.052 305.228 207.321 304.208 206.718C304.603 207.529 306.144 210.515 308.907 211.956C310.612 212.843 312.552 213.189 312.552 213.189C313.106 213.287 313.95 213.397 314.263 213.435C315.2 213.556 315.984 213.632 316.538 213.682C316.659 214.125 316.746 214.553 316.801 215.002C316.801 215.002 317.081 217.1 316.483 219.495C315.573 223.122 312.832 225.976 312.273 226.546C312.651 226.557 313.205 226.535 313.846 226.387C314.625 226.201 315.151 225.872 315.694 225.609C316.982 224.984 318.024 224.289 318.819 223.675C321.719 221.451 323.363 218.985 323.786 218.322C324.202 217.67 325.787 215.073 326.554 211.244C327.349 207.261 326.823 204.083 326.571 202.85C326.307 201.546 325.885 199.563 324.548 197.338C323.638 195.821 322.623 194.725 321.85 194.007L321.856 194.018Z" fill="url(#paint10_linear_20_111)"/>
<path d="M315.255 204.85C317.919 204.85 320.079 202.691 320.079 200.028C320.079 197.366 317.919 195.207 315.255 195.207C312.59 195.207 310.43 197.366 310.43 200.028C310.43 202.691 312.59 204.85 315.255 204.85Z" fill="url(#paint11_linear_20_111)"/>
<path d="M321.088 225.532C320.962 225.5 320.841 225.587 320.693 225.697C320.238 226.025 318.292 227.357 315.052 228.37C313.643 228.809 312.442 228.94 311.384 229.088C309.953 229.285 308.72 229.368 307.766 229.4V229.373C306.796 229.351 305.518 229.28 304.027 229.083C302.969 228.94 301.768 228.825 300.354 228.392C297.108 227.401 295.157 226.086 294.696 225.757C294.548 225.653 294.422 225.56 294.301 225.593C293.874 225.719 293.972 227.209 293.972 227.324C293.972 228.102 294.395 231.028 299.011 232.463C302.454 233.537 305.518 233.723 307.124 233.734C307.124 233.734 311.373 234.052 316.428 232.441C321.033 230.973 321.433 228.047 321.428 227.269C321.428 227.154 321.515 225.658 321.088 225.538V225.532Z" fill="url(#paint12_linear_20_111)"/>
<path d="M308.057 238.172C310.869 238.068 313.303 237.64 315.255 237.153C315.512 236.112 315.776 235.076 316.033 234.035C313.988 234.534 311.357 234.983 308.276 235.027C304.696 235.082 301.67 234.572 299.422 234.024C299.729 235.213 300.036 236.402 300.343 237.586C302.443 237.98 305.052 238.276 308.057 238.166V238.172Z" fill="url(#paint13_linear_20_111)"/>
<path d="M146.867 237.205L139.871 237.533C139.434 237.533 138.984 237.246 138.52 236.674C138.057 236.101 137.825 235.542 137.825 234.996C137.825 234.505 138.602 234.192 140.157 234.055C141.739 233.919 145.189 233.851 150.508 233.851C153.263 233.851 155.527 234.151 157.3 234.751C159.1 235.351 160 236.019 160 236.755C160 237.274 159.55 237.533 158.65 237.533C157.75 237.533 156.495 237.478 154.886 237.369C153.277 237.26 151.736 237.192 150.263 237.165C150.344 237.437 150.385 237.737 150.385 238.065C150.385 239.074 149.322 243.765 147.194 252.139C146.976 253.012 146.649 254.375 146.212 256.23C145.776 258.085 145.448 259.381 145.23 260.117C144.848 261.563 144.507 262.285 144.207 262.285C143.798 262.285 143.335 261.985 142.816 261.385C142.325 260.758 142.08 260.131 142.08 259.503C142.08 258.876 142.816 255.657 144.289 249.848C145.762 244.011 146.621 239.797 146.867 237.205Z" fill="#DE2621"/>
<path d="M131.841 254.307C131.841 256.543 130.832 258.425 128.814 259.953C126.795 261.453 124.477 262.203 121.858 262.203C119.267 262.203 117.126 261.535 115.435 260.198C113.744 258.835 112.898 257.553 112.898 256.352C112.898 255.534 113.144 255.125 113.635 255.125C114.071 255.125 114.93 255.78 116.212 257.089C116.703 257.553 117.358 257.989 118.176 258.398C119.022 258.807 119.908 259.012 120.836 259.012C122.745 259.012 124.436 258.521 125.909 257.539C127.409 256.557 128.159 255.493 128.159 254.348C128.159 253.611 127.668 252.67 126.686 251.525C125.704 250.379 124.613 249.302 123.413 248.293C122.24 247.256 121.163 246.151 120.181 244.979C119.199 243.806 118.708 242.878 118.708 242.196C118.708 241.515 118.845 240.792 119.117 240.028C119.39 239.264 119.69 238.705 120.017 238.351C121.081 237.178 122.731 236.1 124.968 235.118C127.232 234.136 129.127 233.646 130.655 233.646C131.446 233.646 132.114 233.905 132.66 234.423C133.205 234.941 133.478 235.487 133.478 236.059C133.478 236.332 133.191 236.55 132.619 236.714C132.046 236.878 131.173 237.096 130 237.369C128.855 237.614 127.832 237.914 126.932 238.269C123.795 239.469 122.227 240.628 122.227 241.746C122.227 242.346 123.822 244.024 127.014 246.779C128.241 247.842 129.346 249.084 130.328 250.502C131.337 251.893 131.841 253.161 131.841 254.307Z" fill="#DE2621"/>
<path d="M96.453 249.439C94.9801 254.103 94.2436 256.926 94.2436 257.908C94.2436 258.235 94.3391 258.508 94.53 258.726C94.7482 258.917 95.021 259.012 95.3483 259.012C98.485 259.012 101.949 258.508 105.74 257.498C106.968 257.171 107.677 257.008 107.868 257.008C108.277 257.008 108.482 257.294 108.482 257.867C108.482 258.849 106.968 259.858 103.94 260.894C100.94 261.931 98.0349 262.449 95.2256 262.449C93.9709 262.449 92.8662 262.081 91.9116 261.344C90.9842 260.608 90.5205 259.681 90.5205 258.562C90.5205 257.444 90.916 255.535 91.707 252.834C92.5253 250.134 93.3435 247.256 94.1618 244.202C94.9801 241.147 95.3892 238.569 95.3892 236.469C95.3892 236.169 95.4438 235.855 95.5529 235.528C96.0165 234.519 98.9896 234.014 104.472 234.014C109.954 234.014 112.696 234.41 112.696 235.201C112.696 235.746 112.109 236.114 110.936 236.305C109.954 236.496 108.645 236.674 107.009 236.837C105.399 236.974 104.267 237.083 103.613 237.164C102.958 237.219 101.376 237.465 98.8668 237.901V238.024C98.8668 239.878 98.3622 242.674 97.3531 246.411C97.5167 246.438 98.0622 246.452 98.9896 246.452C99.9442 246.452 101.213 246.384 102.795 246.247C104.377 246.111 105.563 246.043 106.354 246.043C107.172 246.043 107.581 246.234 107.581 246.615C107.581 247.57 106.463 248.279 104.227 248.743C101.99 249.207 99.3987 249.439 96.453 249.439Z" fill="#DE2621"/>
<path d="M146.867 237.019L139.871 237.346C139.434 237.346 138.984 237.06 138.52 236.487C138.057 235.914 137.825 235.355 137.825 234.81C137.825 234.319 138.602 234.005 140.157 233.869C141.739 233.732 145.189 233.664 150.508 233.664C153.263 233.664 155.527 233.964 157.3 234.564C159.1 235.164 160 235.832 160 236.569C160 237.087 159.55 237.346 158.65 237.346C157.75 237.346 156.495 237.292 154.886 237.183C153.277 237.074 151.736 237.005 150.263 236.978C150.344 237.251 150.385 237.551 150.385 237.878C150.385 238.887 149.322 243.579 147.194 251.952C146.976 252.825 146.649 254.189 146.212 256.044C145.776 257.898 145.448 259.194 145.23 259.93C144.848 261.376 144.507 262.099 144.207 262.099C143.798 262.099 143.335 261.799 142.816 261.199C142.325 260.571 142.08 259.944 142.08 259.317C142.08 258.689 142.816 255.471 144.289 249.661C145.762 243.824 146.621 239.61 146.867 237.019Z" fill="#DE2621"/>
<path d="M131.841 254.12C131.841 256.357 130.832 258.239 128.814 259.766C126.795 261.266 124.477 262.017 121.858 262.017C119.267 262.017 117.126 261.348 115.435 260.012C113.744 258.648 112.898 257.366 112.898 256.166C112.898 255.348 113.144 254.939 113.635 254.939C114.071 254.939 114.93 255.593 116.212 256.902C116.703 257.366 117.358 257.802 118.176 258.212C119.022 258.621 119.908 258.825 120.836 258.825C122.745 258.825 124.436 258.334 125.909 257.352C127.409 256.371 128.159 255.307 128.159 254.161C128.159 253.425 127.668 252.484 126.686 251.338C125.704 250.193 124.613 249.115 123.413 248.106C122.24 247.07 121.163 245.965 120.181 244.792C119.199 243.619 118.708 242.692 118.708 242.01C118.708 241.328 118.845 240.605 119.117 239.841C119.39 239.078 119.69 238.519 120.017 238.164C121.081 236.991 122.731 235.914 124.968 234.932C127.232 233.95 129.127 233.459 130.655 233.459C131.446 233.459 132.114 233.718 132.66 234.236C133.205 234.755 133.478 235.3 133.478 235.873C133.478 236.146 133.191 236.364 132.619 236.527C132.046 236.691 131.173 236.909 130 237.182C128.855 237.428 127.832 237.728 126.932 238.082C123.795 239.282 122.227 240.442 122.227 241.56C122.227 242.16 123.822 243.837 127.014 246.592C128.241 247.656 129.346 248.897 130.328 250.315C131.337 251.706 131.841 252.975 131.841 254.12Z" fill="#DE2621"/>
<path d="M96.453 249.252C94.9801 253.916 94.2436 256.739 94.2436 257.721C94.2436 258.048 94.3391 258.321 94.53 258.539C94.7482 258.73 95.021 258.826 95.3483 258.826C98.485 258.826 101.949 258.321 105.74 257.312C106.968 256.985 107.677 256.821 107.868 256.821C108.277 256.821 108.482 257.107 108.482 257.68C108.482 258.662 106.968 259.671 103.94 260.708C100.94 261.744 98.0349 262.262 95.2256 262.262C93.9709 262.262 92.8662 261.894 91.9116 261.158C90.9842 260.421 90.5205 259.494 90.5205 258.376C90.5205 257.257 90.916 255.348 91.707 252.648C92.5253 249.948 93.3435 247.07 94.1618 244.015C94.9801 240.96 95.3892 238.383 95.3892 236.282C95.3892 235.982 95.4438 235.669 95.5529 235.341C96.0165 234.332 98.9896 233.828 104.472 233.828C109.954 233.828 112.696 234.223 112.696 235.014C112.696 235.56 112.109 235.928 110.936 236.119C109.954 236.31 108.645 236.487 107.009 236.651C105.399 236.787 104.267 236.896 103.613 236.978C102.958 237.033 101.376 237.278 98.8668 237.714V237.837C98.8668 239.692 98.3622 242.488 97.3531 246.224C97.5167 246.252 98.0622 246.265 98.9896 246.265C99.9442 246.265 101.213 246.197 102.795 246.061C104.377 245.924 105.563 245.856 106.354 245.856C107.172 245.856 107.581 246.047 107.581 246.429C107.581 247.384 106.463 248.093 104.227 248.556C101.99 249.02 99.3987 249.252 96.453 249.252Z" fill="#DE2621"/>
<path d="M73.7688 250.256H73.687C73.6324 250.529 73.3597 251.62 72.8687 253.53C72.405 255.439 72.105 256.694 71.9686 257.294C71.8322 257.866 71.7095 258.33 71.6004 258.685C71.5186 259.039 71.4231 259.448 71.314 259.912C71.2049 260.348 71.0958 260.703 70.9867 260.976C70.9049 261.221 70.823 261.467 70.7412 261.712C70.5775 262.176 70.4139 262.408 70.2502 262.408C69.8957 262.408 69.432 262.026 68.8592 261.262C68.2864 260.471 68 259.83 68 259.339C68 258.848 68.7774 255.439 70.3321 249.111C71.9141 242.783 72.7323 238.569 72.7869 236.469C72.7869 236.06 72.8823 235.732 73.0733 235.487C73.346 234.914 74.1507 234.505 75.4872 234.259C76.8509 234.014 78.8284 233.891 81.4196 233.891C84.0381 233.891 86.0837 234.027 87.5566 234.3C89.0568 234.573 89.8069 234.955 89.8069 235.446C89.8069 235.773 89.575 236.005 89.1113 236.141C88.6476 236.278 88.2385 236.387 87.8839 236.469C87.5293 236.523 87.0657 236.591 86.4929 236.673C85.9201 236.728 85.3882 236.782 84.8972 236.837C84.4063 236.864 83.7653 236.919 82.9743 237.001C82.2106 237.082 81.5014 237.164 80.8468 237.246C80.1922 237.301 79.3057 237.396 78.1874 237.532C77.0691 237.669 76.3463 237.751 76.019 237.778C76.0463 237.86 76.0599 237.982 76.0599 238.146C76.0599 239.428 75.5281 242.374 74.4643 246.983C76.1554 247.065 77.9692 247.024 79.9058 246.861C81.8697 246.697 83.0698 246.615 83.5062 246.615C84.5427 246.615 85.0609 246.833 85.0609 247.27C85.0609 248.115 83.8744 248.825 81.5014 249.397C79.1557 249.97 76.5782 250.256 73.7688 250.256Z" fill="#DE2621"/>
<defs>
<linearGradient id="paint0_linear_20_111" x1="306.653" y1="165.187" x2="306.653" y2="243.834" gradientUnits="userSpaceOnUse">
<stop stop-color="#B1C738"/>
<stop offset="1" stop-color="#DF2020"/>
</linearGradient>
<linearGradient id="paint1_linear_20_111" x1="300.141" y1="172.312" x2="300.141" y2="218.925" gradientUnits="userSpaceOnUse">
<stop stop-color="#B1C738"/>
<stop offset="1" stop-color="#DF2020"/>
</linearGradient>
<linearGradient id="paint2_linear_20_111" x1="295.928" y1="191.991" x2="295.928" y2="227.916" gradientUnits="userSpaceOnUse">
<stop stop-color="#B1C738"/>
<stop offset="1" stop-color="#DF2020"/>
</linearGradient>
<linearGradient id="paint3_linear_20_111" x1="315.592" y1="194.194" x2="315.592" y2="226.735" gradientUnits="userSpaceOnUse">
<stop stop-color="#B1C738"/>
<stop offset="1" stop-color="#DF2020"/>
</linearGradient>
<linearGradient id="paint4_linear_20_111" x1="315.255" y1="195.394" x2="315.255" y2="205.036" gradientUnits="userSpaceOnUse">
<stop stop-color="#B1C738"/>
<stop offset="1" stop-color="#DF2020"/>
</linearGradient>
<linearGradient id="paint5_linear_20_111" x1="307.699" y1="225.712" x2="307.699" y2="233.946" gradientUnits="userSpaceOnUse">
<stop stop-color="#B1C738"/>
<stop offset="1" stop-color="#DF2020"/>
</linearGradient>
<linearGradient id="paint6_linear_20_111" x1="307.728" y1="234.211" x2="307.728" y2="238.376" gradientUnits="userSpaceOnUse">
<stop stop-color="#B1C738"/>
<stop offset="1" stop-color="#DF2020"/>
</linearGradient>
<linearGradient id="paint7_linear_20_111" x1="306.653" y1="165" x2="306.653" y2="243.648" gradientUnits="userSpaceOnUse">
<stop stop-color="#B1C738"/>
<stop offset="1" stop-color="#DF2020"/>
</linearGradient>
<linearGradient id="paint8_linear_20_111" x1="300.141" y1="172.125" x2="300.141" y2="218.739" gradientUnits="userSpaceOnUse">
<stop stop-color="#B1C738"/>
<stop offset="1" stop-color="#DF2020"/>
</linearGradient>
<linearGradient id="paint9_linear_20_111" x1="295.928" y1="191.805" x2="295.928" y2="227.729" gradientUnits="userSpaceOnUse">
<stop stop-color="#B1C738"/>
<stop offset="1" stop-color="#DF2020"/>
</linearGradient>
<linearGradient id="paint10_linear_20_111" x1="315.592" y1="194.007" x2="315.592" y2="226.548" gradientUnits="userSpaceOnUse">
<stop stop-color="#B1C738"/>
<stop offset="1" stop-color="#DF2020"/>
</linearGradient>
<linearGradient id="paint11_linear_20_111" x1="315.255" y1="195.207" x2="315.255" y2="204.85" gradientUnits="userSpaceOnUse">
<stop stop-color="#B1C738"/>
<stop offset="1" stop-color="#DF2020"/>
</linearGradient>
<linearGradient id="paint12_linear_20_111" x1="307.699" y1="225.525" x2="307.699" y2="233.76" gradientUnits="userSpaceOnUse">
<stop stop-color="#B1C738"/>
<stop offset="1" stop-color="#DF2020"/>
</linearGradient>
<linearGradient id="paint13_linear_20_111" x1="307.728" y1="234.024" x2="307.728" y2="238.189" gradientUnits="userSpaceOnUse">
<stop stop-color="#B1C738"/>
<stop offset="1" stop-color="#DF2020"/>
</linearGradient>
</defs>
</svg>
