<svg width="415" height="418" viewBox="0 0 415 418" fill="none" xmlns="http://www.w3.org/2000/svg">
<path d="M189.188 92.7739C193.128 94.0683 200.11 97.0373 205.793 103.817C208.534 107.085 212.977 112.311 212.839 119.438C212.75 123.814 210.974 127.358 209.693 129.898C207.399 134.453 205.615 135.31 202.761 139.962C202.761 139.962 199.899 144.63 198.026 150.802C195.301 159.798 200.807 174.707 212.045 189.059C204.115 185.548 198.115 181.705 194.053 178.785C185.742 172.814 179.531 168.236 176.977 160.065C175.501 155.357 175.842 151.385 175.955 150.341C176.118 148.755 176.718 144.605 183.212 134.809C189.277 125.651 191.823 124.632 194.223 118.152C195.204 115.506 196.364 112.254 196.169 108.007C195.812 100.217 191.134 94.7883 189.196 92.7739H189.188Z" fill="url(#paint0_linear_20_75)"/>
<path d="M185.977 201.614C191.661 204.656 198.65 207.196 206.661 207.625C207.488 199.082 200.88 189.738 195.601 185.313C190.566 180.694 187.98 180.411 183.147 176.341C165.447 162.184 171.569 144.751 178.639 133.417C164.15 146.7 156.293 176.608 177.788 195.959C180.796 198.629 183.431 200.142 185.977 201.614Z" fill="url(#paint1_linear_20_75)"/>
<path d="M239.272 137.988C240.594 140.35 242.523 144.63 242.564 150.163C242.58 152.598 242.613 156.74 240.083 160.825C237.253 165.396 232.875 167.2 230.767 168.074C218.418 173.17 204.877 165.469 202.769 164.231C203.588 165.914 206.774 172.078 212.491 175.047C216.01 176.875 220.031 177.595 220.031 177.595C221.175 177.798 222.926 178.024 223.575 178.105C225.521 178.356 227.142 178.518 228.277 178.615C228.521 179.529 228.707 180.411 228.821 181.341C228.821 181.341 229.404 185.677 228.164 190.628C226.283 198.119 220.615 204.025 219.456 205.198C220.242 205.222 221.385 205.182 222.715 204.866C224.329 204.486 225.423 203.806 226.534 203.264C229.202 201.97 231.358 200.538 233.004 199.268C239.004 194.673 242.41 189.585 243.277 188.209C244.137 186.858 247.421 181.495 249.002 173.591C250.648 165.364 249.553 158.795 249.042 156.255C248.499 153.561 247.632 149.467 244.859 144.872C242.969 141.741 240.869 139.476 239.28 137.988H239.272Z" fill="url(#paint2_linear_20_75)"/>
<path d="M225.626 160.356C231.138 160.356 235.607 155.897 235.607 150.398C235.607 144.898 231.138 140.439 225.626 140.439C220.113 140.439 215.645 144.898 215.645 150.398C215.645 155.897 220.113 160.356 225.626 160.356Z" fill="url(#paint3_linear_20_75)"/>
<path d="M267.207 258.806V223.561H273.966L294.795 248.938H291.516V223.561H299.586V258.806H292.878L271.999 233.429H275.277V258.806H267.207Z" fill="url(#paint4_linear_20_75)"/>
<path d="M240.886 237.76H257.882V244.104H240.886V237.76ZM241.492 252.261H260.707V258.806H233.372V223.561H260.051V230.106H241.492V252.261Z" fill="url(#paint5_linear_20_75)"/>
<path d="M185.204 258.806V223.561H191.962L206.991 248.434H203.41L218.187 223.561H224.895L224.996 258.806H217.33L217.279 235.292H218.692L206.89 255.08H203.208L191.155 235.292H192.87V258.806H185.204Z" fill="url(#paint6_linear_20_75)"/>
<path d="M161.142 259.411C156.133 259.411 152.216 258.018 149.391 255.231C146.567 252.445 145.155 248.468 145.155 243.298V223.561H153.325V242.996C153.325 246.353 154.015 248.77 155.393 250.247C156.772 251.724 158.705 252.462 161.193 252.462C163.681 252.462 165.614 251.724 166.993 250.247C168.371 248.77 169.061 246.353 169.061 242.996V223.561H177.13V243.298C177.13 248.468 175.718 252.445 172.893 255.231C170.069 258.018 166.152 259.411 161.142 259.411Z" fill="url(#paint7_linear_20_75)"/>
<path d="M115.414 258.806V223.561H123.584V252.16H141.287V258.806H115.414Z" fill="url(#paint8_linear_20_75)"/>
<defs>
<linearGradient id="paint0_linear_20_75" x1="194.341" y1="92.7739" x2="194.341" y2="189.059" gradientUnits="userSpaceOnUse">
<stop stop-color="#B1C738"/>
<stop offset="1" stop-color="#DF2020"/>
</linearGradient>
<linearGradient id="paint1_linear_20_75" x1="185.629" y1="133.417" x2="185.629" y2="207.625" gradientUnits="userSpaceOnUse">
<stop stop-color="#B1C738"/>
<stop offset="1" stop-color="#DF2020"/>
</linearGradient>
<linearGradient id="paint2_linear_20_75" x1="226.322" y1="137.988" x2="226.322" y2="205.204" gradientUnits="userSpaceOnUse">
<stop stop-color="#B1C738"/>
<stop offset="1" stop-color="#DF2020"/>
</linearGradient>
<linearGradient id="paint3_linear_20_75" x1="225.626" y1="140.439" x2="225.626" y2="160.356" gradientUnits="userSpaceOnUse">
<stop stop-color="#B1C738"/>
<stop offset="1" stop-color="#DF2020"/>
</linearGradient>
<linearGradient id="paint4_linear_20_75" x1="283.397" y1="223.561" x2="283.397" y2="258.806" gradientUnits="userSpaceOnUse">
<stop stop-color="#B1C738"/>
<stop offset="1" stop-color="#DF2020"/>
</linearGradient>
<linearGradient id="paint5_linear_20_75" x1="247.039" y1="223.561" x2="247.039" y2="258.806" gradientUnits="userSpaceOnUse">
<stop stop-color="#B1C738"/>
<stop offset="1" stop-color="#DF2020"/>
</linearGradient>
<linearGradient id="paint6_linear_20_75" x1="205.1" y1="223.561" x2="205.1" y2="258.806" gradientUnits="userSpaceOnUse">
<stop stop-color="#B1C738"/>
<stop offset="1" stop-color="#DF2020"/>
</linearGradient>
<linearGradient id="paint7_linear_20_75" x1="161.142" y1="223.561" x2="161.142" y2="259.411" gradientUnits="userSpaceOnUse">
<stop stop-color="#B1C738"/>
<stop offset="1" stop-color="#DF2020"/>
</linearGradient>
<linearGradient id="paint8_linear_20_75" x1="128.35" y1="223.561" x2="128.35" y2="258.806" gradientUnits="userSpaceOnUse">
<stop stop-color="#B1C738"/>
<stop offset="1" stop-color="#DF2020"/>
</linearGradient>
</defs>
</svg>
